<?xml version="1.0" encoding="utf-8"?>
<svg xmlns="http://www.w3.org/2000/svg" viewBox="0 19.4 256 257" xmlns:bx="https://boxy-svg.com" width="170px" height="144.904px">
  <defs>
    <symbol viewBox="0 0 24 24" id="symbol-0">
      <path d="M9.90878 3.70062C11.1832 2.88365 12.8168 2.88365 14.0912 3.70062L22.1548 8.86959C22.3689 9.00687 22.4989 9.24336 22.5 9.49775C22.5011 9.75213 22.3732 9.98974 22.1602 10.1289L19 12.1935V17.7509C19 17.9132 18.9474 18.0711 18.85 18.2009L18.8489 18.2024L18.8477 18.204L18.8446 18.208L18.8364 18.2187C18.8321 18.2242 18.8269 18.2308 18.8209 18.2383C18.8179 18.2421 18.8146 18.2462 18.8111 18.2505C18.7904 18.2761 18.7619 18.3105 18.7253 18.3522C18.6522 18.4358 18.5469 18.5493 18.4081 18.6826C18.1305 18.9491 17.7176 19.2958 17.1587 19.6397C16.0359 20.3306 14.3387 21.0009 12 21.0009C9.66127 21.0009 7.96408 20.3306 6.8413 19.6397C6.2824 19.2958 5.86951 18.9491 5.59193 18.6826C5.45308 18.5493 5.34778 18.4358 5.27468 18.3522C5.23204 18.3035 5.1901 18.2541 5.15107 18.2024C5.14956 18.2004 5.15 18.2009 5.15 18.2009C5.05263 18.0711 5 17.9132 5 17.7509V12.1935L3 10.8869V16.2509C3 16.6652 2.66421 17.0009 2.25 17.0009C1.83579 17.0009 1.5 16.6652 1.5 16.2509V9.50095C1.5 9.23047 1.64318 8.99343 1.85788 8.8615L9.90878 3.70062ZM14.1194 15.3822C12.8317 16.2235 11.1683 16.2234 9.88058 15.3822L6.5 13.1735V17.4697C6.5368 17.5082 6.58034 17.5522 6.63073 17.6005C6.84143 17.8028 7.17072 18.0811 7.62745 18.3622C8.53592 18.9213 9.96373 19.5009 12 19.5009C14.0363 19.5009 15.4641 18.9213 16.3726 18.3622C16.8293 18.0811 17.1586 17.8028 17.3693 17.6005C17.4197 17.5522 17.4632 17.5082 17.5 17.4697V13.1735L14.1194 15.3822ZM13.2817 4.96343C12.5006 4.46271 11.4994 4.46271 10.7183 4.96343L3.63041 9.50698L10.701 14.1264C11.4902 14.642 12.5098 14.642 13.299 14.1264L20.3696 9.50698L13.2817 4.96343Z" fill="#212121"/>
    </symbol>
    <symbol viewBox="0 0 24 24" id="symbol-1">
      <path d="M16.0883 6.41228C16.016 6.31886 15.9377 6.2298 15.8539 6.14569C15.5417 5.83255 15.1606 5.59666 14.741 5.45683L13.3632 5.00939C13.257 4.97196 13.165 4.90253 13.1 4.81068C13.0349 4.71883 13 4.60908 13 4.49656C13 4.38404 13.0349 4.27429 13.1 4.18244C13.165 4.09058 13.257 4.02116 13.3632 3.98372L14.741 3.53628C15.1547 3.39352 15.5299 3.15705 15.837 2.84537C16.1357 2.54224 16.3623 2.17595 16.5 1.77372L16.5114 1.73963L16.9592 0.362894C16.9967 0.256782 17.0662 0.164895 17.1581 0.0998993C17.25 0.0349035 17.3598 0 17.4724 0C17.5851 0 17.6949 0.0349035 17.7868 0.0998993C17.8787 0.164895 17.9482 0.256782 17.9857 0.362894L18.4335 1.73963C18.5727 2.15819 18.8077 2.53853 19.1198 2.85041C19.432 3.1623 19.8126 3.39715 20.2315 3.53628L21.6093 3.98372L21.6368 3.99061C21.743 4.02804 21.835 4.09747 21.9 4.18932C21.9651 4.28117 22 4.39092 22 4.50344C22 4.61596 21.9651 4.72571 21.9 4.81756C21.835 4.90942 21.743 4.97884 21.6368 5.01628L20.259 5.46372C19.8402 5.60285 19.4595 5.8377 19.1474 6.14959C18.8353 6.46147 18.6003 6.84181 18.461 7.26037L18.0132 8.63711C18.0092 8.64855 18.0048 8.65983 18 8.67093C17.9605 8.76273 17.8964 8.84212 17.8144 8.9001C17.7224 8.9651 17.6126 9 17.5 9C17.3874 9 17.2776 8.9651 17.1856 8.9001C17.0937 8.8351 17.0242 8.74322 16.9868 8.63711L16.539 7.26037C16.4378 6.95331 16.2851 6.66664 16.0883 6.41228ZM23.7829 10.2132L23.0175 9.9646C22.7848 9.8873 22.5733 9.75683 22.3999 9.58356C22.2265 9.41029 22.0959 9.199 22.0186 8.96646L21.7698 8.20161C21.749 8.14266 21.7104 8.09161 21.6593 8.0555C21.6083 8.01939 21.5473 8 21.4847 8C21.4221 8 21.3611 8.01939 21.31 8.0555C21.259 8.09161 21.2204 8.14266 21.1996 8.20161L20.9508 8.96646C20.875 9.19736 20.7467 9.40761 20.5761 9.58076C20.4055 9.75392 20.1971 9.88529 19.9672 9.9646L19.2018 10.2132C19.1428 10.234 19.0917 10.2725 19.0555 10.3236C19.0194 10.3746 19 10.4356 19 10.4981C19 10.5606 19.0194 10.6216 19.0555 10.6726C19.0917 10.7236 19.1428 10.7622 19.2018 10.783L19.9672 11.0316C20.2003 11.1093 20.412 11.2403 20.5855 11.4143C20.7589 11.5882 20.8893 11.8003 20.9661 12.0335L21.2149 12.7984C21.2357 12.8573 21.2743 12.9084 21.3254 12.9445C21.3764 12.9806 21.4374 13 21.5 13C21.5626 13 21.6236 12.9806 21.6746 12.9445C21.7257 12.9084 21.7643 12.8573 21.7851 12.7984L22.0339 12.0335C22.1113 11.801 22.2418 11.5897 22.4152 11.4164C22.5886 11.2432 22.8001 11.1127 23.0328 11.0354L23.7982 10.7868C23.8572 10.766 23.9083 10.7275 23.9445 10.6764C23.9806 10.6254 24 10.5644 24 10.5019C24 10.4394 23.9806 10.3784 23.9445 10.3274C23.9083 10.2764 23.8572 10.2378 23.7982 10.217L23.7829 10.2132ZM9.90878 3.69964C10.7594 3.15434 11.7701 2.97301 12.7271 3.15565C12.5546 3.26397 12.4027 3.40386 12.28 3.56903C12.0984 3.83411 12.0008 4.14772 12 4.46903C12.0001 4.50848 12.0017 4.5478 12.0048 4.58692C11.5576 4.58602 11.1102 4.7112 10.7183 4.96246L3.63041 9.506L10.701 14.1254C11.4902 14.6411 12.5098 14.6411 13.299 14.1254L18.0483 11.0226C18.0868 11.1202 18.1377 11.2131 18.2 11.299C18.3554 11.5202 18.5755 11.6879 18.83 11.779L19.3709 11.9502L19 12.1926V17.75C19 17.9122 18.9474 18.0701 18.85 18.2L18.8489 18.2014L18.8477 18.2031L18.8446 18.2071L18.8364 18.2178L18.8209 18.2373L18.8111 18.2495C18.7904 18.2751 18.7619 18.3095 18.7253 18.3513C18.6522 18.4348 18.5469 18.5483 18.4081 18.6816C18.1305 18.9481 17.7176 19.2948 17.1587 19.6387C16.0359 20.3297 14.3387 21 12 21C9.66127 21 7.96408 20.3297 6.8413 19.6387C6.2824 19.2948 5.86951 18.9481 5.59193 18.6816C5.45308 18.5483 5.34778 18.4348 5.27468 18.3513C5.23204 18.3025 5.1901 18.2531 5.15107 18.2014L5.15 18.2C5.05263 18.0701 5 17.9122 5 17.75V12.1926L3 10.8859V16.25C3 16.6642 2.66421 17 2.25 17C1.83579 17 1.5 16.6642 1.5 16.25V9.49997C1.5 9.22949 1.64318 8.99246 1.85788 8.86052L9.90878 3.69964ZM14.1194 15.3812C12.8317 16.2225 11.1683 16.2225 9.88058 15.3812L6.5 13.1725V17.4687C6.5368 17.5072 6.58034 17.5512 6.63073 17.5996C6.84143 17.8018 7.17072 18.0802 7.62745 18.3612C8.53592 18.9203 9.96373 19.5 12 19.5C14.0363 19.5 15.4641 18.9203 16.3726 18.3612C16.8293 18.0802 17.1586 17.8018 17.3693 17.5996C17.4197 17.5512 17.4632 17.5072 17.5 17.4687V13.1725L14.1194 15.3812Z" fill="#212121"/>
    </symbol>
    <linearGradient gradientUnits="userSpaceOnUse" x1="12.004" y1="4.09" x2="12.004" y2="14.673" id="gradient-2" gradientTransform="matrix(-0.99991, -0.01312, 0.05654, -3.13304, 23.89184, 44.31012)">
      <stop offset="0" style="stop-color: rgb(9, 170, 205);"/>
      <stop offset="1" style="stop-color: rgb(90, 233, 135);"/>
    </linearGradient>
    <linearGradient gradientUnits="userSpaceOnUse" x1="12" y1="13.174" x2="12" y2="19.501" id="gradient-3" gradientTransform="matrix(0.99988, -0.01534, -0.0174, 1.70826, 0.23068, -9.14648)">
      <stop offset="0" style="stop-color: rgb(35.294% 91.373% 52.941%)"/>
      <stop offset="1" style="stop-color: rgb(9, 170, 205);"/>
    </linearGradient>
    <linearGradient gradientUnits="userSpaceOnUse" x1="12" y1="3.088" x2="12" y2="21.001" id="gradient-4" gradientTransform="matrix(0.99997, 0.00684, 0.00873, 1.00768, -0.04866, -4.12595)">
      <stop offset="0" style="stop-color: rgb(14, 115, 46);"/>
      <stop offset="1" style="stop-color: rgb(6, 58, 69);"/>
    </linearGradient>
    <linearGradient gradientUnits="userSpaceOnUse" x1="77.548" y1="48.745" x2="77.548" y2="150.529" id="gradient-0" gradientTransform="matrix(1, 0, 0, 0.93745, 0, 9.41562)">
      <stop offset="0" style="stop-color: rgb(103, 230, 144);"/>
      <stop offset="1" style="stop-color: rgb(0, 196, 238);"/>
    </linearGradient>
    <bx:export>
      <bx:file format="svg" path="hitimu.svg"/>
      <bx:file format="svg" href="#object-0" path="logo.svg"/>
      <bx:file format="svg" href="#object-2"/>
    </bx:export>
  </defs>
  <g id="object-2">
    <g style="" transform="matrix(1.88871, 0, 0, 1.88871, -42.50728, -30.38465)" id="object-0">
      <title>logo</title>
      <g transform="matrix(-4.00187, -1.14752, -1.04582, 3.64724, 162.15438, 33.92061)" style="">
        <title>hat</title>
        <path d="M 9.909 3.701 C 11.183 2.884 12.817 2.884 14.091 3.701 L 22.155 8.870000000000001 C 22.369 9.007 22.499 9.243 22.5 9.498 C 22.501 9.752 22.373 9.99 22.16 10.129 L 19 12.194 L 19 17.751 C 19 17.913 18.947 18.071 18.85 18.201 L 18.849 18.202 L 18.848 18.204 L 18.845 18.208 L 18.836 18.219 C 18.832 18.224 18.827 18.231 18.821 18.238 C 18.818 18.242 18.815 18.246 18.811 18.251 C 18.79 18.276 18.762 18.311 18.725 18.352 C 18.652 18.436 18.547 18.549 18.408 18.683 C 18.131 18.949 17.718 19.296 17.159 19.64 C 16.036 20.331 14.339 21.001 12 21.001 C 9.661 21.001 7.964 20.331 6.841 19.64 C 6.282 19.296 5.87 18.949 5.592 18.683 C 5.453 18.549 5.348 18.436 5.275 18.352 C 5.232 18.304 5.19 18.254 5.151 18.202 C 5.15 18.2 5.15 18.201 5.15 18.201 C 5.053 18.071 5 17.913 5 17.751 L 5 12.194 L 3 10.887 L 3 16.251 C 3 16.665 2.6639999999999997 17.001 2.25 17.001 C 1.836 17.001 1.5 16.665 1.5 16.251 L 1.5 9.501 C 1.5 9.23 1.643 8.993 1.858 8.862 L 9.909 3.701 Z" style="fill: url(&quot;#gradient-4&quot;);"/>
        <path d="M 12.326 4.122 C 11.545 3.622 3.61 9.188 3.61 9.188 C 3.61 9.188 11.229 15.157 12.018 14.641 L 20.398 9.389 L 12.326 4.122 Z" style="fill: url(&quot;#gradient-2&quot;);"/>
        <path d="M 14.119 15.382 C 12.832 16.224 11.168 16.223 9.881 15.382 L 6.5 13.174 L 6.5 17.47 C 6.537 17.508 6.58 17.552 6.631 17.601 C 6.841 17.803 7.171 18.081 7.627 18.362 C 8.536 18.921 9.964 19.501 12 19.501 C 14.036 19.501 15.464 18.921 16.373 18.362 C 16.829 18.081 17.159 17.803 17.369 17.601 C 17.42 17.552 17.463 17.508 17.5 17.47 L 17.5 13.174 L 14.119 15.382 Z" style="fill: url(&quot;#gradient-3&quot;);"/>
      </g>
      <path style="fill: url(&quot;#gradient-0&quot;); stroke: rgb(5, 47, 121);" d="M 66.338 87.706 L 66.701 79.833 C 66.621 79.833 68.738 67.304 69.026 59.726 C 69.172 55.896 66.451 50.871 63.688 49.567 C 61.702 48.63 56.582 48.126 53.356 50.123 C 50.712 51.759 48.979 53.233 47.825 57.626 C 44.758 71.071 44.452 98.189 44.452 98.189 L 46.306 139.907 C 46.417 139.796 46.923 150.614 57.987 150.104 C 66.964 149.69 67.762 139.529 67.762 139.529 L 66.313 108.239 C 66.313 108.239 73.744 106.509 80.128 106.784 C 87.066 107.083 89.278 107.978 89.278 107.978 L 89.411 117.561 L 88.072 139.719 C 88.072 139.719 88.182 144.647 90.894 147.199 C 93.729 149.867 97.882 151.559 102.3 149.823 C 105.652 148.506 109.161 141.946 109.161 141.946 L 110.644 120.438 L 110.459 98.559 L 90.805 93.695 L 73.393 86.831 L 66.338 87.706 Z">
        <title>h</title>
      </path>
    </g>
  </g>
</svg>