<?xml version="1.0" encoding="utf-8"?>
<svg xmlns="http://www.w3.org/2000/svg" viewBox="0 6.1902 256 270.2088" width="170px" height="152.352px" preserveAspectRatio="none"><defs><linearGradient gradientUnits="userSpaceOnUse" x1="12" y1="3.088" x2="12" y2="21.001" id="gradient-4" gradientTransform="matrix(0.99997, 0.00684, 0.00873, 1.00768, -0.04866, -4.12595)"><stop offset="0" style="stop-color: rgb(14, 115, 46);"/><stop offset="1" style="stop-color: rgb(6, 58, 69);"/></linearGradient><linearGradient gradientUnits="userSpaceOnUse" x1="12.004" y1="4.09" x2="12.004" y2="14.673" id="gradient-2" gradientTransform="matrix(-0.99991, -0.01312, 0.05654, -3.13304, 23.89184, 44.31012)"><stop offset="0" style="stop-color: rgb(9, 170, 205);"/><stop offset="1" style="stop-color: rgb(90, 233, 135);"/></linearGradient><linearGradient gradientUnits="userSpaceOnUse" x1="12" y1="13.174" x2="12" y2="19.501" id="gradient-3" gradientTransform="matrix(0.99988, -0.01534, -0.0174, 1.70826, 0.23068, -9.14648)"><stop offset="0" style="stop-color: rgb(35.294% 91.373% 52.941%)"/><stop offset="1" style="stop-color: rgb(9, 170, 205);"/></linearGradient><linearGradient gradientUnits="userSpaceOnUse" x1="77.548" y1="48.745" x2="77.548" y2="150.529" id="gradient-0" gradientTransform="matrix(1, 0, 0, 0.93745, 0, 9.41562)"><stop offset="0" style="stop-color: rgb(103, 230, 144);"/><stop offset="1" style="stop-color: rgb(0, 196, 238);"/></linearGradient></defs><g id="object-2" transform="matrix(1, 0, 0, 1, -2.842170943040401e-14, 0)"><ellipse style="stroke: rgb(0, 0, 0); stroke-width: 0px; fill: rgb(255, 255, 255);" cx="128" cy="147.899" rx="128" ry="128.5" id="object-1"/><g style="" transform="matrix(1.88871, 0, 0, 1.88871, -42.50728, -30.38465)" id="object-0"><title>logo</title><g transform="matrix(-4.00187, -1.14752, -1.04582, 3.64724, 162.15438, 33.92061)" style=""><title>hat</title><path d="M 9.909 3.701 C 11.183 2.884 12.817 2.884 14.091 3.701 L 22.155 8.870000000000001 C 22.369 9.007 22.499 9.243 22.5 9.498 C 22.501 9.752 22.373 9.99 22.16 10.129 L 19 12.194 L 19 17.751 C 19 17.913 18.947 18.071 18.85 18.201 L 18.849 18.202 L 18.848 18.204 L 18.845 18.208 L 18.836 18.219 C 18.832 18.224 18.827 18.231 18.821 18.238 C 18.818 18.242 18.815 18.246 18.811 18.251 C 18.79 18.276 18.762 18.311 18.725 18.352 C 18.652 18.436 18.547 18.549 18.408 18.683 C 18.131 18.949 17.718 19.296 17.159 19.64 C 16.036 20.331 14.339 21.001 12 21.001 C 9.661 21.001 7.964 20.331 6.841 19.64 C 6.282 19.296 5.87 18.949 5.592 18.683 C 5.453 18.549 5.348 18.436 5.275 18.352 C 5.232 18.304 5.19 18.254 5.151 18.202 C 5.15 18.2 5.15 18.201 5.15 18.201 C 5.053 18.071 5 17.913 5 17.751 L 5 12.194 L 3 10.887 L 3 16.251 C 3 16.665 2.6639999999999997 17.001 2.25 17.001 C 1.836 17.001 1.5 16.665 1.5 16.251 L 1.5 9.501 C 1.5 9.23 1.643 8.993 1.858 8.862 L 9.909 3.701 Z" style="fill: url(&quot;#gradient-4&quot;);"/><path d="M 12.326 4.122 C 11.545 3.622 3.61 9.188 3.61 9.188 C 3.61 9.188 11.229 15.157 12.018 14.641 L 20.398 9.389 L 12.326 4.122 Z" style="fill: url(&quot;#gradient-2&quot;);"/><path d="M 14.119 15.382 C 12.832 16.224 11.168 16.223 9.881 15.382 L 6.5 13.174 L 6.5 17.47 C 6.537 17.508 6.58 17.552 6.631 17.601 C 6.841 17.803 7.171 18.081 7.627 18.362 C 8.536 18.921 9.964 19.501 12 19.501 C 14.036 19.501 15.464 18.921 16.373 18.362 C 16.829 18.081 17.159 17.803 17.369 17.601 C 17.42 17.552 17.463 17.508 17.5 17.47 L 17.5 13.174 L 14.119 15.382 Z" style="fill: url(&quot;#gradient-3&quot;);"/></g><path style="fill: url(&quot;#gradient-0&quot;); stroke: rgb(5, 47, 121);" d="M 66.338 87.706 L 66.701 79.833 C 66.621 79.833 68.738 67.304 69.026 59.726 C 69.172 55.896 66.451 50.871 63.688 49.567 C 61.702 48.63 56.582 48.126 53.356 50.123 C 50.712 51.759 48.979 53.233 47.825 57.626 C 44.758 71.071 44.452 98.189 44.452 98.189 L 46.306 139.907 C 46.417 139.796 46.923 150.614 57.987 150.104 C 66.964 149.69 67.762 139.529 67.762 139.529 L 66.313 108.239 C 66.313 108.239 73.744 106.509 80.128 106.784 C 87.066 107.083 89.278 107.978 89.278 107.978 L 89.411 117.561 L 88.072 139.719 C 88.072 139.719 88.182 144.647 90.894 147.199 C 93.729 149.867 97.882 151.559 102.3 149.823 C 105.652 148.506 109.161 141.946 109.161 141.946 L 110.644 120.438 L 110.459 98.559 L 90.805 93.695 L 73.393 86.831 L 66.338 87.706 Z"><title>h</title></path></g></g></svg>